<?xml version="1.0" standalone="no"?>
<!DOCTYPE svg PUBLIC "-//W3C//DTD SVG 20010904//EN"
 "http://www.w3.org/TR/2001/REC-SVG-20010904/DTD/svg10.dtd">
<svg version="1.0" xmlns="http://www.w3.org/2000/svg"
 width="500.000000pt" height="500.000000pt" viewBox="0 0 500.000000 500.000000"
 preserveAspectRatio="xMidYMid meet">

<g transform="translate(0.000000,500.000000) scale(0.100000,-0.100000)"
fill="#000000" stroke="none">
<path d="M760 2500 l0 -480 1740 0 1740 0 0 480 0 480 -1740 0 -1740 0 0 -480z
m3450 0 l0 -450 -1715 0 -1715 0 0 450 0 450 1715 0 1715 0 0 -450z"/>
<path d="M850 2500 l0 -390 820 0 820 0 0 390 0 390 -820 0 -820 0 0 -390z
m170 61 c0 -116 16 -151 73 -151 53 0 67 29 67 135 0 78 3 95 15 95 12 0 15
-17 15 -96 0 -130 -19 -163 -97 -164 -30 0 -50 7 -70 24 -27 23 -28 28 -31
130 -3 92 -2 106 12 106 13 0 16 -13 16 -79z m434 58 c20 -16 26 -29 26 -60 0
-38 -26 -79 -50 -79 -6 0 3 -20 20 -44 35 -52 36 -56 13 -56 -10 0 -30 20 -46
45 -23 37 -34 45 -58 45 -28 0 -29 -2 -29 -45 0 -38 -3 -45 -20 -45 -19 0 -20
7 -20 130 l0 130 69 0 c54 0 74 -4 95 -21z m286 1 c23 -23 26 -72 6 -89 -13
-11 -12 -15 5 -32 26 -26 24 -65 -6 -94 -21 -22 -33 -25 -95 -25 l-70 0 0 130
0 130 70 0 c57 0 74 -4 90 -20z m274 -97 c27 -65 51 -124 53 -130 11 -27 -27
-11 -42 17 -15 28 -19 30 -78 30 -60 0 -63 -1 -74 -30 -6 -17 -19 -30 -28 -30
-20 0 -23 -10 42 148 32 80 51 112 62 112 12 0 31 -34 65 -117z m233 20 l68
-98 3 98 c2 77 6 97 17 97 12 0 15 -23 15 -130 0 -103 -3 -130 -14 -130 -7 0
-45 46 -85 101 l-71 102 0 -102 c0 -83 -3 -101 -15 -101 -13 0 -15 21 -15 130
0 107 3 130 15 130 7 0 45 -44 82 -97z"/>
<path d="M1330 2559 l0 -50 52 3 c47 3 54 6 62 30 14 41 -14 68 -71 68 l-43 0
0 -51z"/>
<path d="M1610 2570 l0 -41 51 3 c96 6 96 70 0 76 l-51 3 0 -41z"/>
<path d="M1610 2454 l0 -45 51 3 c39 2 55 8 65 23 12 18 11 24 -2 43 -12 18
-25 22 -65 22 l-49 0 0 -46z"/>
<path d="M1921 2528 c-12 -28 -19 -53 -17 -55 2 -2 24 -3 49 -1 l44 3 -20 53
c-11 28 -23 52 -27 52 -4 0 -17 -23 -29 -52z"/>
<path d="M4004 2636 c-34 -15 -44 -33 -44 -75 0 -35 26 -59 82 -75 25 -8 44
-20 46 -30 5 -23 -26 -31 -47 -12 -10 9 -32 16 -50 16 -27 0 -32 -3 -29 -21 5
-35 51 -62 103 -61 55 0 92 22 101 59 11 42 -14 74 -76 98 -32 12 -55 27 -55
35 0 21 44 25 51 6 9 -24 74 -22 74 2 0 51 -95 86 -156 58z"/>
<path d="M2570 2633 c0 -5 17 -62 38 -128 l38 -120 41 -3 40 -3 18 63 c9 35
20 67 23 72 2 5 14 -22 26 -60 l22 -69 39 -3 40 -3 41 131 42 131 -41 -3 c-41
-3 -41 -3 -59 -62 -10 -33 -20 -61 -22 -63 -2 -3 -14 25 -26 61 -22 66 -22 66
-59 66 -38 0 -38 -1 -56 -60 -10 -33 -21 -60 -25 -60 -4 0 -15 27 -25 60 -18
60 -18 60 -57 60 -21 0 -38 -3 -38 -7z"/>
<path d="M3010 2510 l0 -130 35 0 35 0 0 50 0 50 40 0 40 0 0 -50 0 -50 40 0
40 0 0 130 0 130 -40 0 -40 0 0 -45 0 -45 -40 0 -40 0 0 45 c0 45 0 45 -35 45
l-35 0 0 -130z"/>
<path d="M3300 2510 l0 -130 90 0 90 0 0 30 c0 30 -1 30 -55 30 -48 0 -55 2
-55 20 0 17 7 20 45 20 43 0 45 1 45 30 0 29 -2 30 -45 30 -38 0 -45 3 -45 20
0 17 7 20 50 20 49 0 50 1 50 30 l0 30 -85 0 -85 0 0 -130z"/>
<path d="M3520 2510 l0 -130 95 0 95 0 0 30 c0 30 -1 30 -55 30 -48 0 -55 2
-55 20 0 17 7 20 45 20 43 0 45 1 45 30 0 29 -2 30 -45 30 -38 0 -45 3 -45 20
0 17 7 20 50 20 49 0 50 1 50 30 l0 30 -90 0 -90 0 0 -130z"/>
<path d="M3750 2510 l0 -130 95 0 95 0 0 35 0 35 -55 0 -55 0 0 95 0 95 -40 0
-40 0 0 -130z"/>
</g>
</svg>
